<svg width="736" height="453" viewBox="0 0 736 453" fill="none" xmlns="http://www.w3.org/2000/svg">
<rect width="736" height="453" fill="#1E1E1E"/>
<rect width="736" height="453" fill="white"/>
<path d="M175 253V198.4H165.1V193.9H191.4V198.4H181.3V253H175ZM197.816 253V203.5H203.016L203.716 208.8C204.449 206.933 205.649 205.6 207.316 204.8C208.982 204 210.649 203.5 212.316 203.3C214.182 202.9 215.982 202.867 217.716 203.2V208.1C217.449 208.033 216.982 207.967 216.316 207.9C215.649 207.833 214.916 207.8 214.116 207.8C213.382 207.8 212.682 207.933 212.016 208.2C209.749 208.467 207.849 209.3 206.316 210.7C204.782 212.033 204.016 213.867 204.016 216.2V253H197.816ZM235.509 253.7C232.442 253.7 229.875 253.3 227.809 252.5C225.809 251.633 224.309 250.133 223.309 248C222.375 245.867 221.909 242.933 221.909 239.2V216.1C221.909 211.3 222.942 207.867 225.009 205.8C227.142 203.733 230.642 202.7 235.509 202.7C240.375 202.7 243.842 203.7 245.909 205.7C248.042 207.7 249.109 211.167 249.109 216.1V239.2C249.109 242.933 248.642 245.867 247.709 248C246.775 250.067 245.309 251.533 243.309 252.4C241.309 253.267 238.709 253.7 235.509 253.7ZM235.509 249.8C238.175 249.8 240.075 249.133 241.209 247.8C242.342 246.467 242.909 244.033 242.909 240.5V215.8C242.909 212.533 242.375 210.2 241.309 208.8C240.242 207.333 238.309 206.6 235.509 206.6C232.909 206.6 231.009 207.3 229.809 208.7C228.675 210.033 228.109 212.4 228.109 215.8V240.5C228.109 243.967 228.675 246.4 229.809 247.8C231.009 249.133 232.909 249.8 235.509 249.8ZM258.363 253V203.5H263.463L264.263 208.8C264.796 206.8 266.029 205.267 267.963 204.2C269.896 203.133 271.896 202.6 273.963 202.6C277.496 202.6 280.063 203.233 281.663 204.5C283.329 205.7 284.396 207.3 284.863 209.3C285.329 211.233 285.563 213.367 285.563 215.7V253H279.363V216.6C279.363 215.4 279.329 214.233 279.263 213.1C279.196 211.967 278.929 210.967 278.463 210.1C278.063 209.167 277.363 208.433 276.363 207.9C275.363 207.367 273.896 207.1 271.963 207.1C270.296 207.1 268.929 207.433 267.863 208.1C266.863 208.7 266.096 209.433 265.562 210.3C265.096 211.1 264.763 211.867 264.563 212.6V253H258.363ZM308.074 253.9C304.808 253.9 302.141 253.533 300.074 252.8C298.008 252 296.508 250.6 295.574 248.6C294.641 246.533 294.174 243.533 294.174 239.6V215.2C294.174 210.333 295.208 207.033 297.274 205.3C299.408 203.5 302.908 202.6 307.774 202.6C312.508 202.6 315.908 203.467 317.974 205.2C320.108 206.933 321.174 210.133 321.174 214.8V221.3H314.974V214.6C314.974 211.733 314.508 209.667 313.574 208.4C312.641 207.067 310.708 206.4 307.774 206.4C304.841 206.4 302.874 207.067 301.874 208.4C300.874 209.667 300.374 211.733 300.374 214.6V241.2C300.374 244.4 300.874 246.667 301.874 248C302.874 249.267 304.908 249.9 307.974 249.9C310.774 249.9 312.641 249.267 313.574 248C314.508 246.733 314.974 244.467 314.974 241.2V234.5H321.174V239.6C321.174 243.4 320.708 246.333 319.774 248.4C318.841 250.467 317.408 251.9 315.474 252.7C313.541 253.5 311.074 253.9 308.074 253.9ZM342.442 253.7C339.376 253.7 336.809 253.3 334.742 252.5C332.742 251.633 331.242 250.133 330.242 248C329.309 245.867 328.842 242.933 328.842 239.2V216.1C328.842 211.3 329.876 207.867 331.942 205.8C334.076 203.733 337.576 202.7 342.442 202.7C347.309 202.7 350.776 203.7 352.842 205.7C354.976 207.7 356.042 211.167 356.042 216.1V239.2C356.042 242.933 355.576 245.867 354.642 248C353.709 250.067 352.242 251.533 350.242 252.4C348.242 253.267 345.642 253.7 342.442 253.7ZM342.442 249.8C345.109 249.8 347.009 249.133 348.142 247.8C349.276 246.467 349.842 244.033 349.842 240.5V215.8C349.842 212.533 349.309 210.2 348.242 208.8C347.176 207.333 345.242 206.6 342.442 206.6C339.842 206.6 337.942 207.3 336.742 208.7C335.609 210.033 335.042 212.4 335.042 215.8V240.5C335.042 243.967 335.609 246.4 336.742 247.8C337.942 249.133 339.842 249.8 342.442 249.8Z" fill="black"/>
<path d="M366.144 253V197.446H368.212L391.148 250.274V197.446H392.652V253H390.678L367.648 199.89V253H366.144ZM416.584 253.658C413.889 253.658 411.758 253.313 410.192 252.624C408.688 251.872 407.591 250.901 406.902 249.71C406.212 248.519 405.774 247.203 405.586 245.762C405.398 244.258 405.304 242.785 405.304 241.344V218.032C405.304 216.591 405.398 215.149 405.586 213.708C405.774 212.267 406.212 210.951 406.902 209.76C407.654 208.507 408.813 207.535 410.38 206.846C411.946 206.094 414.14 205.718 416.96 205.718C420.406 205.718 422.913 206.345 424.48 207.598C426.046 208.851 427.049 210.418 427.488 212.298C427.989 214.178 428.24 216.089 428.24 218.032V241.344C428.24 243.287 427.989 245.198 427.488 247.078C427.049 248.958 426.015 250.525 424.386 251.778C422.756 253.031 420.156 253.658 416.584 253.658ZM416.584 252.154C419.842 252.154 422.161 251.59 423.54 250.462C424.981 249.271 425.858 247.83 426.172 246.138C426.548 244.383 426.736 242.691 426.736 241.062V218.314C426.736 216.622 426.548 214.93 426.172 213.238C425.858 211.546 425.012 210.136 423.634 209.008C422.318 207.817 420.093 207.222 416.96 207.222C414.453 207.222 412.479 207.567 411.038 208.256C409.659 208.945 408.656 209.854 408.03 210.982C407.466 212.047 407.121 213.238 406.996 214.554C406.87 215.807 406.808 217.061 406.808 218.314V241.062C406.808 242.315 406.87 243.6 406.996 244.916C407.121 246.169 407.466 247.36 408.03 248.488C408.594 249.553 409.534 250.431 410.85 251.12C412.228 251.809 414.14 252.154 416.584 252.154ZM451.486 253.658C448.353 253.658 446.097 253.188 444.718 252.248C443.34 251.245 442.337 250.023 441.71 248.582L441.522 253H440.206V193.78H441.71V210.794C442.337 209.415 443.371 208.225 444.812 207.222C446.316 206.219 448.541 205.718 451.486 205.718C454.118 205.718 456.186 206.094 457.69 206.846C459.257 207.535 460.385 208.507 461.074 209.76C461.764 210.951 462.202 212.267 462.39 213.708C462.578 215.149 462.672 216.591 462.672 218.032V241.344C462.672 243.287 462.484 245.198 462.108 247.078C461.732 248.958 460.761 250.525 459.194 251.778C457.628 253.031 455.058 253.658 451.486 253.658ZM451.486 252.154C454.557 252.154 456.75 251.59 458.066 250.462C459.445 249.271 460.291 247.767 460.604 245.95C460.98 244.133 461.168 242.315 461.168 240.498V218.314C461.168 216.622 460.98 214.93 460.604 213.238C460.291 211.546 459.445 210.136 458.066 209.008C456.75 207.817 454.557 207.222 451.486 207.222C447.664 207.222 445.063 208.319 443.684 210.512C442.368 212.705 441.71 215.4 441.71 218.596V240.498C441.71 242.315 441.836 244.133 442.086 245.95C442.4 247.767 443.214 249.271 444.53 250.462C445.909 251.59 448.228 252.154 451.486 252.154ZM474.63 253V206.47H475.946L476.134 211.17C476.824 209.729 477.952 208.475 479.518 207.41C481.148 206.282 483.435 205.718 486.38 205.718C487.696 205.718 488.856 205.812 489.858 206V207.504C488.856 207.316 487.696 207.222 486.38 207.222C482.934 207.222 480.364 208.131 478.672 209.948C476.98 211.765 476.134 213.927 476.134 216.434V253H474.63ZM506.545 253.658C503.85 253.658 501.719 253.313 500.153 252.624C498.649 251.872 497.552 250.901 496.863 249.71C496.173 248.519 495.735 247.203 495.547 245.762C495.359 244.258 495.265 242.785 495.265 241.344V218.032C495.265 216.089 495.484 214.178 495.923 212.298C496.361 210.418 497.364 208.851 498.931 207.598C500.56 206.345 503.098 205.718 506.545 205.718C510.054 205.718 512.592 206.313 514.159 207.504C515.725 208.695 516.697 210.23 517.073 212.11C517.511 213.99 517.731 215.964 517.731 218.032V228.278H496.769V241.062C496.769 242.879 496.925 244.665 497.239 246.42C497.615 248.112 498.492 249.491 499.871 250.556C501.249 251.621 503.474 252.154 506.545 252.154C509.615 252.154 511.809 251.621 513.125 250.556C514.503 249.491 515.349 248.112 515.663 246.42C516.039 244.728 516.227 242.942 516.227 241.062V237.302H517.731V241.344C517.731 243.287 517.543 245.198 517.167 247.078C516.791 248.958 515.819 250.525 514.253 251.778C512.686 253.031 510.117 253.658 506.545 253.658ZM496.769 226.774H516.227V218.878C516.227 216.685 516.07 214.711 515.757 212.956C515.443 211.201 514.597 209.823 513.219 208.82C511.903 207.755 509.678 207.222 506.545 207.222C503.787 207.222 501.688 207.723 500.247 208.726C498.868 209.666 497.928 211.013 497.427 212.768C496.988 214.46 496.769 216.497 496.769 218.878V226.774Z" fill="black"/>
</svg>
